<svg width="200" height="60" viewBox="0 0 200 60" fill="none" xmlns="http://www.w3.org/2000/svg">
  <!-- Icon part -->
  <g transform="translate(5, 5)">
    <!-- Hexagon background -->
    <path d="M25 2.5L43.3013 13.75V36.25L25 47.5L6.6987 36.25V13.75L25 2.5Z" fill="url(#gradient1)" stroke="#0554F2" stroke-width="1.5"/>
    
    <!-- Gear teeth -->
    <g transform="translate(25, 25)">
      <line x1="10" y1="0" x2="14" y2="0" stroke="#0554F2" stroke-width="2" stroke-linecap="round"/>
      <line x1="7.071" y1="7.071" x2="9.899" y2="9.899" stroke="#0554F2" stroke-width="2" stroke-linecap="round"/>
      <line x1="0" y1="10" x2="0" y2="14" stroke="#0554F2" stroke-width="2" stroke-linecap="round"/>
      <line x1="-7.071" y1="7.071" x2="-9.899" y2="9.899" stroke="#0554F2" stroke-width="2" stroke-linecap="round"/>
      <line x1="-10" y1="0" x2="-14" y2="0" stroke="#0554F2" stroke-width="2" stroke-linecap="round"/>
      <line x1="-7.071" y1="-7.071" x2="-9.899" y2="-9.899" stroke="#0554F2" stroke-width="2" stroke-linecap="round"/>
      <line x1="0" y1="-10" x2="0" y2="-14" stroke="#0554F2" stroke-width="2" stroke-linecap="round"/>
      <line x1="7.071" y1="-7.071" x2="9.899" y2="-9.899" stroke="#0554F2" stroke-width="2" stroke-linecap="round"/>
    </g>
    
    <!-- Center circle -->
    <circle cx="25" cy="25" r="7.5" fill="white" stroke="#1675F2" stroke-width="1.5"/>
    
    <!-- Inner detail -->
    <circle cx="25" cy="25" r="4" fill="#1675F2"/>
  </g>
  
  <!-- Text part -->
  <text x="65" y="35" font-family="Arial, sans-serif" font-size="28" font-weight="900" fill="url(#textGradient)">OMEX</text>
  <text x="65" y="48" font-family="Arial, sans-serif" font-size="8" font-weight="600" fill="#6b7280" letter-spacing="1.5">PARTS &amp; MACHINERY</text>
  
  <!-- Gradient definitions -->
  <defs>
    <linearGradient id="gradient1" x1="0%" y1="0%" x2="100%" y2="100%">
      <stop offset="0%" stop-color="#E8F4FE"/>
      <stop offset="100%" stop-color="#D4EBFC"/>
    </linearGradient>
    <linearGradient id="textGradient" x1="0%" y1="0%" x2="100%" y2="0%">
      <stop offset="0%" stop-color="#0554F2"/>
      <stop offset="100%" stop-color="#1675F2"/>
    </linearGradient>
  </defs>
</svg>
